<svg aria-hidden="true" style="position: absolute; width: 0; height: 0; overflow: hidden;" version="1.1" xmlns="http://www.w3.org/2000/svg" xmlns:xlink="http://www.w3.org/1999/xlink">
<defs>
<symbol id="linkedin" viewBox="0 0 32 32">
<path fill="#666" style="fill: var(--color1, #666)" d="M16 0.64c-8.483 0-15.36 6.877-15.36 15.36s6.877 15.36 15.36 15.36c8.483 0 15.36-6.877 15.36-15.36s-6.877-15.36-15.36-15.36zM12.24 22.366h-3.11v-10.010h3.11v10.010zM10.666 11.128c-0.982 0-1.618-0.696-1.618-1.557 0-0.878 0.654-1.554 1.658-1.554s1.618 0.675 1.637 1.554c0 0.861-0.634 1.557-1.677 1.557zM23.6 22.366h-3.11v-5.547c0-1.291-0.451-2.168-1.576-2.168-0.859 0-1.37 0.594-1.595 1.165-0.083 0.203-0.104 0.491-0.104 0.778v5.771h-3.112v-6.816c0-1.25-0.040-2.294-0.082-3.194h2.702l0.142 1.39h0.062c0.41-0.653 1.413-1.616 3.091-1.616 2.046 0 3.581 1.371 3.581 4.318v5.918z"></path>
</symbol>
<symbol id="twitter" viewBox="0 0 32 32">
<path fill="#666" style="fill: var(--color1, #666)" d="M16.875 1.875c-8.283 0-15 6.717-15 15s6.717 15 15 15c8.284 0 15-6.716 15-15s-6.716-15-15-15zM24.084 13.182c0.010 0.157 0.010 0.321 0.010 0.482 0 4.915-3.743 10.577-10.584 10.577-2.109 0-4.065-0.613-5.712-1.667 0.301 0.033 0.589 0.047 0.897 0.047 1.741 0 3.341-0.589 4.617-1.587-1.634-0.034-3.007-1.105-3.475-2.578 0.573 0.084 1.088 0.084 1.677-0.067-0.841-0.171-1.598-0.628-2.14-1.293s-0.838-1.498-0.836-2.357v-0.047c0.492 0.278 1.071 0.449 1.677 0.472-0.509-0.34-0.927-0.8-1.216-1.339s-0.441-1.142-0.441-1.755c0-0.693 0.181-1.326 0.506-1.875 0.934 1.15 2.099 2.090 3.42 2.759s2.768 1.054 4.247 1.128c-0.526-2.528 1.363-4.574 3.633-4.574 1.072 0 2.036 0.449 2.715 1.172 0.84-0.157 1.644-0.472 2.361-0.894-0.278 0.86-0.861 1.587-1.634 2.046 0.75-0.080 1.473-0.288 2.143-0.579-0.506 0.743-1.138 1.403-1.865 1.929z"></path>
</symbol>
<symbol id="git" viewBox="0 0 32 32">
<path fill="#666" style="fill: var(--color1, #666)" d="M16 0c-8.84 0-16 7.16-16 16 0 7.080 4.58 13.060 10.94 15.18 0.8 0.14 1.1-0.34 1.1-0.76 0-0.38-0.020-1.64-0.020-2.98-4.020 0.74-5.060-0.98-5.38-1.88-0.18-0.46-0.96-1.88-1.64-2.26-0.56-0.3-1.36-1.040-0.020-1.060 1.26-0.020 2.16 1.16 2.46 1.64 1.44 2.42 3.74 1.74 4.66 1.32 0.14-1.040 0.56-1.74 1.020-2.14-3.56-0.4-7.28-1.78-7.28-7.9 0-1.74 0.62-3.18 1.64-4.3-0.16-0.4-0.72-2.040 0.16-4.24 0 0 1.34-0.42 4.4 1.64 1.28-0.36 2.64-0.54 4-0.54s2.72 0.18 4 0.54c3.060-2.080 4.4-1.64 4.4-1.64 0.88 2.2 0.32 3.84 0.16 4.24 1.020 1.12 1.64 2.54 1.64 4.3 0 6.14-3.74 7.5-7.3 7.9 0.58 0.5 1.080 1.46 1.080 2.96 0 2.14-0.020 3.86-0.020 4.4 0 0.42 0.3 0.92 1.1 0.76 3.176-1.072 5.936-3.114 7.892-5.837s3.007-5.991 3.008-9.343c0-8.84-7.16-16-16-16z"></path>
</symbol>
<symbol id="menu" viewBox="0 0 32 32">
<path d="M2 6h28v6h-28zM2 14h28v6h-28zM2 22h28v6h-28z"></path>
</symbol>
<symbol id="cross" viewBox="0 0 32 32">
<path d="M31.708 25.708c-0-0-0-0-0-0l-9.708-9.708 9.708-9.708c0-0 0-0 0-0 0.105-0.105 0.18-0.227 0.229-0.357 0.133-0.356 0.057-0.771-0.229-1.057l-4.586-4.586c-0.286-0.286-0.702-0.361-1.057-0.229-0.13 0.048-0.252 0.124-0.357 0.228 0 0-0 0-0 0l-9.708 9.708-9.708-9.708c-0-0-0-0-0-0-0.105-0.104-0.227-0.18-0.357-0.228-0.356-0.133-0.771-0.057-1.057 0.229l-4.586 4.586c-0.286 0.286-0.361 0.702-0.229 1.057 0.049 0.13 0.124 0.252 0.229 0.357 0 0 0 0 0 0l9.708 9.708-9.708 9.708c-0 0-0 0-0 0-0.104 0.105-0.18 0.227-0.229 0.357-0.133 0.355-0.057 0.771 0.229 1.057l4.586 4.586c0.286 0.286 0.702 0.361 1.057 0.229 0.13-0.049 0.252-0.124 0.357-0.229 0-0 0-0 0-0l9.708-9.708 9.708 9.708c0 0 0 0 0 0 0.105 0.105 0.227 0.18 0.357 0.229 0.356 0.133 0.771 0.057 1.057-0.229l4.586-4.586c0.286-0.286 0.362-0.702 0.229-1.057-0.049-0.13-0.124-0.252-0.229-0.357z"></path>
</symbol>
</defs>
</svg>
